<svg xmlns="http://www.w3.org/2000/svg" viewBox="0 0 650 200">
  <defs>
    <linearGradient id="grad1" x1="0%" y1="0%" x2="100%" y2="100%">
      <stop offset="0%" style="stop-color:#6A11CB;stop-opacity:1" />
      <stop offset="100%" style="stop-color:#2575FC;stop-opacity:1" />
    </linearGradient>
  </defs>

  <!-- Fond de l'icône -->
  <rect x="10" y="10" width="180" height="180" rx="30" ry="30" fill="url(#grad1)" />

  <!-- Formes abstraites représentant la double sécurité -->
  <path d="M60 100 A40,40 0 0,1 140,100 A40,40 0 0,1 60,100 Z" fill="none" stroke="white" stroke-width="12" />
  <path d="M80 100 A20,20 0 0,1 120,100 A20,20 0 0,1 80,100 Z" fill="white" />

  <!-- Lignes représentant la connexion et la vérification -->
  <line x1="60" y1="100" x2="30" y2="100" stroke="white" stroke-width="8" stroke-linecap="round" />
  <line x1="140" y1="100" x2="170" y2="100" stroke="white" stroke-width="8" stroke-linecap="round" />
  <line x1="100" y1="60" x2="100" y2="30" stroke="white" stroke-width="8" stroke-linecap="round" />
  <line x1="100" y1="140" x2="100" y2="170" stroke="white" stroke-width="8" stroke-linecap="round" />

  <!-- Point central représentant l'utilisateur -->
  <circle cx="100" cy="100" r="5" fill="white" />

  <!-- Texte "SecondLock" -->
  <text x="210" y="130" font-family="Arial, sans-serif" font-size="72" font-weight="bold" fill="url(#grad1)">SecondLock</text>
</svg>
